<?xml version="1.0" encoding="utf-8"?>
<!-- Svg Vector Icons : http://www.onlinewebfonts.com/icon -->
<!DOCTYPE svg PUBLIC "-//W3C//DTD SVG 1.1//EN" "http://www.w3.org/Graphics/SVG/1.1/DTD/svg11.dtd">
<svg version="1.1" xmlns="http://www.w3.org/2000/svg" xmlns:xlink="http://www.w3.org/1999/xlink" x="0px" y="0px" viewBox="0 0 1000 1000" enable-background="new 0 0 1000 1000" xml:space="preserve">
<metadata> Svg Vector Icons : http://www.onlinewebfonts.com/icon </metadata>
<g><g><path d="M258.4,500c0,62.6,50.7,113.4,113.3,113.4c62.6,0,113.4-50.7,113.4-113.3c0,0,0,0,0,0c0-62.6-50.7-113.4-113.3-113.4C309.2,386.6,258.4,437.4,258.4,500C258.4,500,258.4,500,258.4,500z M500,10C229.4,10,10,229.4,10,500s219.4,490,490,490c270.6,0,490-219.4,490-490C990,229.4,770.6,10,500,10z M373.1,928.1C225.8,842.3,126.7,682.8,126.7,500c0-182.8,99.1-342.3,246.4-428.1C520.5,157.7,619.6,317.2,619.6,500C619.6,682.8,520.5,842.3,373.1,928.1z"/></g><g></g><g></g><g></g><g></g><g></g><g></g><g></g><g></g><g></g><g></g><g></g><g></g><g></g><g></g><g></g></g>
</svg>